<mxfile host="app.diagrams.net" modified="2023-09-12T15:46:46.376Z" agent="Mozilla/5.0 (Windows NT 10.0; Win64; x64) AppleWebKit/537.36 (KHTML, like Gecko) Chrome/116.0.0.0 Safari/537.36 Edg/116.0.1938.69" etag="MmhE4wRqYnQDDfP1O2Ue" version="21.7.4" type="device">
  <diagram name="meanteacher-fixmatch" id="c6-jacU57F5PVlRRSxmq">
    <mxGraphModel dx="1063" dy="610" grid="1" gridSize="10" guides="1" tooltips="1" connect="1" arrows="1" fold="1" page="1" pageScale="1" pageWidth="1169" pageHeight="827" math="0" shadow="0">
      <root>
        <mxCell id="0" />
        <mxCell id="1" parent="0" />
        <mxCell id="IiUNVA97wayGrPqKpcaN-1" value="" style="rounded=0;whiteSpace=wrap;html=1;fillColor=none;dashed=1;strokeWidth=2;strokeColor=#999999;" vertex="1" parent="1">
          <mxGeometry x="778" y="424" width="132" height="210" as="geometry" />
        </mxCell>
        <mxCell id="IiUNVA97wayGrPqKpcaN-2" style="edgeStyle=orthogonalEdgeStyle;rounded=0;orthogonalLoop=1;jettySize=auto;html=1;entryX=0;entryY=0.5;entryDx=0;entryDy=0;strokeWidth=2;dashed=1;" edge="1" parent="1" source="IiUNVA97wayGrPqKpcaN-3" target="IiUNVA97wayGrPqKpcaN-4">
          <mxGeometry relative="1" as="geometry" />
        </mxCell>
        <mxCell id="IiUNVA97wayGrPqKpcaN-3" value="student model" style="rounded=1;whiteSpace=wrap;html=1;fontSize=14;fontStyle=1;strokeWidth=2;" vertex="1" parent="1">
          <mxGeometry x="91" y="93" width="120" height="60" as="geometry" />
        </mxCell>
        <mxCell id="IiUNVA97wayGrPqKpcaN-4" value="teacher model" style="rounded=1;whiteSpace=wrap;html=1;fontSize=14;fontStyle=1;strokeWidth=2;" vertex="1" parent="1">
          <mxGeometry x="322" y="93" width="120" height="60" as="geometry" />
        </mxCell>
        <mxCell id="IiUNVA97wayGrPqKpcaN-5" value="" style="group;align=center;" vertex="1" connectable="0" parent="1">
          <mxGeometry x="109" y="40" width="50" height="51.10000000000002" as="geometry" />
        </mxCell>
        <mxCell id="IiUNVA97wayGrPqKpcaN-6" value="labeled&lt;br&gt;&lt;font color=&quot;#ff0000&quot; style=&quot;font-size: 14px;&quot;&gt;X1&lt;/font&gt;" style="text;html=1;strokeColor=none;fillColor=none;align=left;verticalAlign=middle;whiteSpace=wrap;rounded=0;" vertex="1" parent="IiUNVA97wayGrPqKpcaN-5">
          <mxGeometry x="-3" width="50" height="30" as="geometry" />
        </mxCell>
        <mxCell id="IiUNVA97wayGrPqKpcaN-7" value="" style="endArrow=classic;html=1;rounded=0;entryX=0.093;entryY=-0.015;entryDx=0;entryDy=0;entryPerimeter=0;strokeColor=#FF0000;strokeWidth=2;" edge="1" parent="IiUNVA97wayGrPqKpcaN-5">
          <mxGeometry width="50" height="50" relative="1" as="geometry">
            <mxPoint x="11" y="32" as="sourcePoint" />
            <mxPoint x="11.160000000000082" y="51.10000000000002" as="targetPoint" />
          </mxGeometry>
        </mxCell>
        <mxCell id="IiUNVA97wayGrPqKpcaN-8" value="" style="group" vertex="1" connectable="0" parent="1">
          <mxGeometry x="164" y="40" width="150" height="51" as="geometry" />
        </mxCell>
        <mxCell id="IiUNVA97wayGrPqKpcaN-9" value="weak noisy unlabeled&lt;br&gt;&lt;font color=&quot;#3333ff&quot; style=&quot;font-size: 14px;&quot;&gt;WNX2&lt;/font&gt;" style="text;html=1;strokeColor=none;fillColor=none;align=left;verticalAlign=middle;whiteSpace=wrap;rounded=0;" vertex="1" parent="IiUNVA97wayGrPqKpcaN-8">
          <mxGeometry x="-11" y="-13" width="61" height="30" as="geometry" />
        </mxCell>
        <mxCell id="IiUNVA97wayGrPqKpcaN-10" value="" style="endArrow=classic;html=1;rounded=0;entryX=0.093;entryY=-0.015;entryDx=0;entryDy=0;entryPerimeter=0;strokeColor=#3333FF;strokeWidth=2;" edge="1" parent="IiUNVA97wayGrPqKpcaN-8">
          <mxGeometry width="50" height="50" relative="1" as="geometry">
            <mxPoint x="9" y="32" as="sourcePoint" />
            <mxPoint x="9" y="51" as="targetPoint" />
          </mxGeometry>
        </mxCell>
        <mxCell id="IiUNVA97wayGrPqKpcaN-11" value="" style="group" vertex="1" connectable="0" parent="1">
          <mxGeometry x="342" y="33" width="57" height="57" as="geometry" />
        </mxCell>
        <mxCell id="IiUNVA97wayGrPqKpcaN-12" value="strong noisy&lt;br&gt;labeled&lt;br&gt;&lt;font color=&quot;#ff0000&quot; style=&quot;font-size: 14px;&quot;&gt;SNX1&lt;/font&gt;" style="text;html=1;strokeColor=none;fillColor=none;align=left;verticalAlign=middle;whiteSpace=wrap;rounded=0;" vertex="1" parent="IiUNVA97wayGrPqKpcaN-11">
          <mxGeometry x="-9.5" y="-3.9310344827586206" width="57" height="29.482758620689655" as="geometry" />
        </mxCell>
        <mxCell id="IiUNVA97wayGrPqKpcaN-13" value="" style="endArrow=classic;html=1;rounded=0;entryX=0.093;entryY=-0.015;entryDx=0;entryDy=0;entryPerimeter=0;strokeColor=#FF0000;strokeWidth=2;" edge="1" parent="IiUNVA97wayGrPqKpcaN-11">
          <mxGeometry width="50" height="50" relative="1" as="geometry">
            <mxPoint x="10.45" y="38.32758620689655" as="sourcePoint" />
            <mxPoint x="10.45" y="57" as="targetPoint" />
          </mxGeometry>
        </mxCell>
        <mxCell id="IiUNVA97wayGrPqKpcaN-14" value="" style="group" vertex="1" connectable="0" parent="1">
          <mxGeometry x="382" y="33" width="60" height="58" as="geometry" />
        </mxCell>
        <mxCell id="IiUNVA97wayGrPqKpcaN-15" value="strong noisy&lt;br&gt;unlabeled&lt;br&gt;&lt;font color=&quot;#3333ff&quot; style=&quot;font-size: 14px;&quot;&gt;SNX2&lt;/font&gt;" style="text;html=1;strokeColor=none;fillColor=none;align=left;verticalAlign=middle;whiteSpace=wrap;rounded=0;" vertex="1" parent="IiUNVA97wayGrPqKpcaN-14">
          <mxGeometry x="-5" y="-4" width="60" height="30" as="geometry" />
        </mxCell>
        <mxCell id="IiUNVA97wayGrPqKpcaN-16" value="" style="endArrow=classic;html=1;rounded=0;entryX=0.093;entryY=-0.015;entryDx=0;entryDy=0;entryPerimeter=0;strokeColor=#3333FF;strokeWidth=2;" edge="1" parent="IiUNVA97wayGrPqKpcaN-14">
          <mxGeometry width="50" height="50" relative="1" as="geometry">
            <mxPoint x="15" y="39" as="sourcePoint" />
            <mxPoint x="15" y="58" as="targetPoint" />
          </mxGeometry>
        </mxCell>
        <mxCell id="IiUNVA97wayGrPqKpcaN-17" value="" style="endArrow=classic;html=1;rounded=0;exitX=0.25;exitY=1;exitDx=0;exitDy=0;strokeWidth=2;strokeColor=#FF0000;" edge="1" parent="1">
          <mxGeometry width="50" height="50" relative="1" as="geometry">
            <mxPoint x="119" y="153" as="sourcePoint" />
            <mxPoint x="119" y="223" as="targetPoint" />
          </mxGeometry>
        </mxCell>
        <mxCell id="IiUNVA97wayGrPqKpcaN-18" value="" style="endArrow=classic;html=1;rounded=0;exitX=0.25;exitY=1;exitDx=0;exitDy=0;strokeWidth=2;strokeColor=#3333FF;" edge="1" parent="1">
          <mxGeometry width="50" height="50" relative="1" as="geometry">
            <mxPoint x="176" y="153" as="sourcePoint" />
            <mxPoint x="176" y="223" as="targetPoint" />
          </mxGeometry>
        </mxCell>
        <mxCell id="IiUNVA97wayGrPqKpcaN-19" value="" style="endArrow=classic;html=1;rounded=0;exitX=0.25;exitY=1;exitDx=0;exitDy=0;strokeWidth=2;strokeColor=#FF0000;" edge="1" parent="1">
          <mxGeometry width="50" height="50" relative="1" as="geometry">
            <mxPoint x="351" y="153" as="sourcePoint" />
            <mxPoint x="351" y="223" as="targetPoint" />
          </mxGeometry>
        </mxCell>
        <mxCell id="IiUNVA97wayGrPqKpcaN-20" value="" style="endArrow=classic;html=1;rounded=0;exitX=0.25;exitY=1;exitDx=0;exitDy=0;strokeColor=#3333FF;strokeWidth=2;" edge="1" parent="1">
          <mxGeometry width="50" height="50" relative="1" as="geometry">
            <mxPoint x="398" y="153" as="sourcePoint" />
            <mxPoint x="398" y="223" as="targetPoint" />
          </mxGeometry>
        </mxCell>
        <mxCell id="IiUNVA97wayGrPqKpcaN-21" value="&lt;font color=&quot;#ff0000&quot; style=&quot;font-size: 14px;&quot;&gt;P1&lt;/font&gt;" style="text;html=1;strokeColor=none;fillColor=none;align=center;verticalAlign=middle;whiteSpace=wrap;rounded=0;" vertex="1" parent="1">
          <mxGeometry x="96" y="223" width="50" height="20" as="geometry" />
        </mxCell>
        <mxCell id="IiUNVA97wayGrPqKpcaN-22" value="&lt;font color=&quot;#3333ff&quot; style=&quot;font-size: 14px;&quot;&gt;WNP2&lt;/font&gt;" style="text;html=1;strokeColor=none;fillColor=none;align=center;verticalAlign=middle;whiteSpace=wrap;rounded=0;" vertex="1" parent="1">
          <mxGeometry x="153" y="223" width="50" height="20" as="geometry" />
        </mxCell>
        <mxCell id="IiUNVA97wayGrPqKpcaN-23" value="&lt;font color=&quot;#ff0000&quot; style=&quot;font-size: 14px;&quot;&gt;SNP1&lt;/font&gt;" style="text;html=1;strokeColor=none;fillColor=none;align=center;verticalAlign=middle;whiteSpace=wrap;rounded=0;" vertex="1" parent="1">
          <mxGeometry x="328" y="223" width="50" height="20" as="geometry" />
        </mxCell>
        <mxCell id="IiUNVA97wayGrPqKpcaN-24" value="&lt;font color=&quot;#3333ff&quot; style=&quot;font-size: 14px;&quot;&gt;SNP2&lt;/font&gt;" style="text;html=1;strokeColor=none;fillColor=none;align=center;verticalAlign=middle;whiteSpace=wrap;rounded=0;" vertex="1" parent="1">
          <mxGeometry x="368" y="223" width="50" height="20" as="geometry" />
        </mxCell>
        <mxCell id="IiUNVA97wayGrPqKpcaN-25" value="&lt;font color=&quot;#00cc00&quot; style=&quot;font-size: 14px;&quot;&gt;GT&lt;/font&gt;" style="text;html=1;strokeColor=none;fillColor=none;align=center;verticalAlign=middle;whiteSpace=wrap;rounded=0;" vertex="1" parent="1">
          <mxGeometry x="41" y="223" width="50" height="20" as="geometry" />
        </mxCell>
        <mxCell id="IiUNVA97wayGrPqKpcaN-26" value="" style="shape=partialRectangle;whiteSpace=wrap;html=1;bottom=1;right=1;left=1;top=0;fillColor=none;routingCenterX=-0.5;strokeColor=#00CC00;strokeWidth=2;" vertex="1" parent="1">
          <mxGeometry x="63" y="243" width="56" height="20" as="geometry" />
        </mxCell>
        <mxCell id="IiUNVA97wayGrPqKpcaN-27" value="" style="shape=partialRectangle;whiteSpace=wrap;html=1;bottom=1;right=1;left=1;top=0;fillColor=none;routingCenterX=-0.5;strokeColor=#FF0000;strokeWidth=2;" vertex="1" parent="1">
          <mxGeometry x="126" y="243" width="223" height="20" as="geometry" />
        </mxCell>
        <mxCell id="IiUNVA97wayGrPqKpcaN-28" value="" style="shape=partialRectangle;whiteSpace=wrap;html=1;bottom=1;right=1;left=1;top=0;fillColor=none;routingCenterX=-0.5;strokeColor=#3333FF;strokeWidth=2;" vertex="1" parent="1">
          <mxGeometry x="177" y="243" width="221" height="40" as="geometry" />
        </mxCell>
        <mxCell id="IiUNVA97wayGrPqKpcaN-29" value="&lt;font style=&quot;font-size: 11px;&quot;&gt;G&lt;/font&gt;" style="text;html=1;strokeColor=none;fillColor=none;align=center;verticalAlign=middle;whiteSpace=wrap;rounded=0;fontSize=11;" vertex="1" parent="1">
          <mxGeometry x="49" y="120" width="31" height="20" as="geometry" />
        </mxCell>
        <mxCell id="IiUNVA97wayGrPqKpcaN-30" value="&lt;font style=&quot;font-size: 11px;&quot;&gt;no G&lt;/font&gt;" style="text;html=1;strokeColor=none;fillColor=none;align=center;verticalAlign=middle;whiteSpace=wrap;rounded=0;fontSize=11;" vertex="1" parent="1">
          <mxGeometry x="269" y="121" width="56" height="20" as="geometry" />
        </mxCell>
        <mxCell id="IiUNVA97wayGrPqKpcaN-31" value="&lt;font style=&quot;font-size: 14px;&quot;&gt;EMA&lt;/font&gt;" style="text;html=1;strokeColor=none;fillColor=none;align=center;verticalAlign=middle;whiteSpace=wrap;rounded=0;" vertex="1" parent="1">
          <mxGeometry x="236" y="102" width="60" height="20" as="geometry" />
        </mxCell>
        <mxCell id="IiUNVA97wayGrPqKpcaN-32" value="" style="edgeStyle=elbowEdgeStyle;elbow=vertical;endArrow=classic;html=1;curved=0;rounded=0;endSize=8;startSize=8;entryX=0;entryY=0.5;entryDx=0;entryDy=0;strokeWidth=2;exitX=0;exitY=0.5;exitDx=0;exitDy=0;exitPerimeter=0;" edge="1" parent="1" source="IiUNVA97wayGrPqKpcaN-39" target="IiUNVA97wayGrPqKpcaN-3">
          <mxGeometry width="50" height="50" relative="1" as="geometry">
            <mxPoint x="21" y="343" as="sourcePoint" />
            <mxPoint x="1" y="323" as="targetPoint" />
            <Array as="points">
              <mxPoint x="49" y="123" />
              <mxPoint x="-9" y="253" />
              <mxPoint x="21" y="123" />
              <mxPoint x="-59" y="243" />
              <mxPoint x="21" y="123" />
            </Array>
          </mxGeometry>
        </mxCell>
        <mxCell id="IiUNVA97wayGrPqKpcaN-33" value="" style="endArrow=classic;html=1;rounded=0;strokeColor=#3333FF;strokeWidth=2;" edge="1" parent="1">
          <mxGeometry width="50" height="50" relative="1" as="geometry">
            <mxPoint x="331" y="283" as="sourcePoint" />
            <mxPoint x="331" y="343" as="targetPoint" />
          </mxGeometry>
        </mxCell>
        <mxCell id="IiUNVA97wayGrPqKpcaN-34" value="consistency L2" style="edgeLabel;html=1;align=center;verticalAlign=middle;resizable=0;points=[];fontColor=#3333FF;" vertex="1" connectable="0" parent="IiUNVA97wayGrPqKpcaN-33">
          <mxGeometry x="-0.2117" relative="1" as="geometry">
            <mxPoint y="-6" as="offset" />
          </mxGeometry>
        </mxCell>
        <mxCell id="IiUNVA97wayGrPqKpcaN-35" value="" style="endArrow=classic;html=1;rounded=0;strokeColor=#FF0000;strokeWidth=2;" edge="1" parent="1">
          <mxGeometry width="50" height="50" relative="1" as="geometry">
            <mxPoint x="241" y="263" as="sourcePoint" />
            <mxPoint x="241" y="343" as="targetPoint" />
          </mxGeometry>
        </mxCell>
        <mxCell id="IiUNVA97wayGrPqKpcaN-36" value="consistency L1" style="edgeLabel;html=1;align=center;verticalAlign=middle;resizable=0;points=[];fontColor=#FF0000;" vertex="1" connectable="0" parent="IiUNVA97wayGrPqKpcaN-35">
          <mxGeometry x="-0.2539" y="1" relative="1" as="geometry">
            <mxPoint y="8" as="offset" />
          </mxGeometry>
        </mxCell>
        <mxCell id="IiUNVA97wayGrPqKpcaN-37" value="" style="endArrow=classic;html=1;rounded=0;strokeWidth=2;strokeColor=#00CC00;" edge="1" parent="1">
          <mxGeometry width="50" height="50" relative="1" as="geometry">
            <mxPoint x="94" y="263" as="sourcePoint" />
            <mxPoint x="94" y="343" as="targetPoint" />
          </mxGeometry>
        </mxCell>
        <mxCell id="IiUNVA97wayGrPqKpcaN-38" value="supervised L1" style="edgeLabel;html=1;align=center;verticalAlign=middle;resizable=0;points=[];fontColor=#00CC00;" vertex="1" connectable="0" parent="IiUNVA97wayGrPqKpcaN-37">
          <mxGeometry x="-0.249" y="1" relative="1" as="geometry">
            <mxPoint y="7" as="offset" />
          </mxGeometry>
        </mxCell>
        <mxCell id="IiUNVA97wayGrPqKpcaN-39" value="" style="line;strokeWidth=2;html=1;" vertex="1" parent="1">
          <mxGeometry x="49" y="338" width="282" height="10" as="geometry" />
        </mxCell>
        <mxCell id="IiUNVA97wayGrPqKpcaN-40" value="&lt;ul&gt;&lt;li&gt;&lt;font color=&quot;#ff0000&quot; style=&quot;font-size: 11px;&quot;&gt;X1: labeled data&lt;/font&gt;&lt;/li&gt;&lt;li&gt;&lt;font color=&quot;#3333ff&quot; style=&quot;font-size: 11px;&quot;&gt;X2: unlabeled data&lt;/font&gt;&lt;/li&gt;&lt;li&gt;&lt;font color=&quot;#00cc00&quot; style=&quot;font-size: 11px;&quot;&gt;GT: ground truth&lt;/font&gt;&lt;/li&gt;&lt;li&gt;&lt;font style=&quot;font-size: 11px;&quot;&gt;P: prediction&lt;/font&gt;&lt;/li&gt;&lt;li style=&quot;border-color: var(--border-color);&quot;&gt;&lt;font style=&quot;border-color: var(--border-color); font-size: 11px;&quot;&gt;PL: pseudo label&lt;/font&gt;&lt;/li&gt;&lt;li&gt;&lt;font style=&quot;font-size: 11px;&quot;&gt;N: noise&lt;/font&gt;&lt;/li&gt;&lt;li style=&quot;border-color: var(--border-color);&quot;&gt;&lt;font style=&quot;border-color: var(--border-color); font-size: 11px;&quot;&gt;W: weak&lt;/font&gt;&lt;/li&gt;&lt;li style=&quot;border-color: var(--border-color);&quot;&gt;&lt;font style=&quot;border-color: var(--border-color); font-size: 11px;&quot;&gt;S: strong&lt;/font&gt;&lt;/li&gt;&lt;li&gt;&lt;font style=&quot;font-size: 11px;&quot;&gt;L: loss&lt;/font&gt;&lt;/li&gt;&lt;li&gt;&lt;font style=&quot;font-size: 11px;&quot;&gt;G: gradient&lt;/font&gt;&lt;/li&gt;&lt;/ul&gt;" style="text;html=1;strokeColor=default;fillColor=#E6E6E6;align=left;verticalAlign=middle;whiteSpace=wrap;rounded=1;fontSize=10;strokeWidth=1;spacing=-21;glass=0;shadow=0;" vertex="1" parent="1">
          <mxGeometry x="412" y="210" width="115" height="134" as="geometry" />
        </mxCell>
        <mxCell id="IiUNVA97wayGrPqKpcaN-41" value="" style="edgeStyle=orthogonalEdgeStyle;rounded=0;orthogonalLoop=1;jettySize=auto;html=1;strokeWidth=2;" edge="1" parent="1" source="IiUNVA97wayGrPqKpcaN-42" target="IiUNVA97wayGrPqKpcaN-44">
          <mxGeometry relative="1" as="geometry" />
        </mxCell>
        <mxCell id="IiUNVA97wayGrPqKpcaN-42" value="model" style="rounded=1;whiteSpace=wrap;html=1;fontSize=14;fontStyle=1;strokeWidth=2;" vertex="1" parent="1">
          <mxGeometry x="76" y="481" width="120" height="60" as="geometry" />
        </mxCell>
        <mxCell id="IiUNVA97wayGrPqKpcaN-43" value="" style="edgeStyle=orthogonalEdgeStyle;rounded=0;orthogonalLoop=1;jettySize=auto;html=1;strokeWidth=2;" edge="1" parent="1" source="IiUNVA97wayGrPqKpcaN-44" target="IiUNVA97wayGrPqKpcaN-47">
          <mxGeometry relative="1" as="geometry" />
        </mxCell>
        <mxCell id="IiUNVA97wayGrPqKpcaN-44" value="model" style="rounded=1;whiteSpace=wrap;html=1;fontSize=14;fontStyle=1;strokeWidth=2;" vertex="1" parent="1">
          <mxGeometry x="230" y="481" width="120" height="60" as="geometry" />
        </mxCell>
        <mxCell id="IiUNVA97wayGrPqKpcaN-45" value="&lt;font color=&quot;#ff0000&quot; style=&quot;font-size: 14px;&quot;&gt;P1&lt;/font&gt;" style="text;html=1;strokeColor=none;fillColor=none;align=center;verticalAlign=middle;whiteSpace=wrap;rounded=0;" vertex="1" parent="1">
          <mxGeometry x="110" y="616" width="50" height="20" as="geometry" />
        </mxCell>
        <mxCell id="IiUNVA97wayGrPqKpcaN-46" value="&lt;font color=&quot;#00cc00&quot; style=&quot;font-size: 14px;&quot;&gt;GT&lt;/font&gt;" style="text;html=1;strokeColor=none;fillColor=none;align=center;verticalAlign=middle;whiteSpace=wrap;rounded=0;" vertex="1" parent="1">
          <mxGeometry x="180" y="616" width="20" height="20" as="geometry" />
        </mxCell>
        <mxCell id="IiUNVA97wayGrPqKpcaN-47" value="model" style="rounded=1;whiteSpace=wrap;html=1;fontSize=14;fontStyle=1;strokeWidth=2;" vertex="1" parent="1">
          <mxGeometry x="384" y="481" width="120" height="60" as="geometry" />
        </mxCell>
        <mxCell id="IiUNVA97wayGrPqKpcaN-48" value="&lt;font color=&quot;#3333ff&quot; style=&quot;font-size: 14px;&quot;&gt;SNP2&lt;/font&gt;" style="text;html=1;strokeColor=none;fillColor=none;align=center;verticalAlign=middle;whiteSpace=wrap;rounded=0;" vertex="1" parent="1">
          <mxGeometry x="371" y="616" width="50" height="20" as="geometry" />
        </mxCell>
        <mxCell id="IiUNVA97wayGrPqKpcaN-49" value="&lt;font style=&quot;font-size: 14px;&quot;&gt;PL2&lt;/font&gt;" style="text;html=1;strokeColor=none;fillColor=none;align=center;verticalAlign=middle;whiteSpace=wrap;rounded=0;fontColor=#00CC00;" vertex="1" parent="1">
          <mxGeometry x="253" y="616" width="50" height="20" as="geometry" />
        </mxCell>
        <mxCell id="IiUNVA97wayGrPqKpcaN-50" value="" style="edgeStyle=elbowEdgeStyle;elbow=vertical;endArrow=classic;html=1;curved=0;rounded=0;endSize=8;startSize=8;entryX=0;entryY=0.5;entryDx=0;entryDy=0;strokeWidth=2;exitX=0;exitY=0.5;exitDx=0;exitDy=0;exitPerimeter=0;" edge="1" parent="1" source="IiUNVA97wayGrPqKpcaN-63">
          <mxGeometry width="50" height="50" relative="1" as="geometry">
            <mxPoint x="44" y="720" as="sourcePoint" />
            <mxPoint x="76" y="515" as="targetPoint" />
            <Array as="points">
              <mxPoint x="44" y="515" />
              <mxPoint x="44" y="515" />
              <mxPoint x="6" y="515" />
              <mxPoint x="-24" y="645" />
              <mxPoint x="6" y="515" />
              <mxPoint x="-74" y="635" />
              <mxPoint x="6" y="515" />
            </Array>
          </mxGeometry>
        </mxCell>
        <mxCell id="IiUNVA97wayGrPqKpcaN-51" value="" style="endArrow=classic;html=1;rounded=0;exitX=0.5;exitY=1;exitDx=0;exitDy=0;strokeColor=#3333FF;strokeWidth=2;" edge="1" parent="1" source="IiUNVA97wayGrPqKpcaN-47">
          <mxGeometry width="50" height="50" relative="1" as="geometry">
            <mxPoint x="399" y="541" as="sourcePoint" />
            <mxPoint x="399" y="613" as="targetPoint" />
            <Array as="points">
              <mxPoint x="444" y="560" />
              <mxPoint x="399" y="560" />
            </Array>
          </mxGeometry>
        </mxCell>
        <mxCell id="IiUNVA97wayGrPqKpcaN-52" value="" style="group" vertex="1" connectable="0" parent="1">
          <mxGeometry x="273" y="636" width="195" height="100" as="geometry" />
        </mxCell>
        <mxCell id="IiUNVA97wayGrPqKpcaN-53" value="" style="shape=partialRectangle;whiteSpace=wrap;html=1;bottom=1;right=1;left=1;top=0;fillColor=none;routingCenterX=-0.5;strokeColor=#00CC00;strokeWidth=2;fontColor=#00CC00;" vertex="1" parent="IiUNVA97wayGrPqKpcaN-52">
          <mxGeometry x="3.41" width="121" height="20" as="geometry" />
        </mxCell>
        <mxCell id="IiUNVA97wayGrPqKpcaN-54" value="" style="endArrow=classic;html=1;rounded=0;strokeColor=#3333FF;strokeWidth=2;" edge="1" parent="IiUNVA97wayGrPqKpcaN-52">
          <mxGeometry width="50" height="50" relative="1" as="geometry">
            <mxPoint x="79" y="-75" as="sourcePoint" />
            <mxPoint x="79.13043478260869" y="98" as="targetPoint" />
          </mxGeometry>
        </mxCell>
        <mxCell id="IiUNVA97wayGrPqKpcaN-55" value="consistency L" style="edgeLabel;html=1;align=center;verticalAlign=middle;resizable=0;points=[];fontColor=#3333FF;" vertex="1" connectable="0" parent="IiUNVA97wayGrPqKpcaN-54">
          <mxGeometry x="-0.2117" relative="1" as="geometry">
            <mxPoint x="-12" y="-26" as="offset" />
          </mxGeometry>
        </mxCell>
        <mxCell id="IiUNVA97wayGrPqKpcaN-56" value="" style="endArrow=classic;html=1;rounded=0;exitX=0.25;exitY=1;exitDx=0;exitDy=0;strokeWidth=2;strokeColor=#FF0000;" edge="1" parent="1">
          <mxGeometry width="50" height="50" relative="1" as="geometry">
            <mxPoint x="134.67000000000002" y="541" as="sourcePoint" />
            <mxPoint x="134.67000000000002" y="613" as="targetPoint" />
          </mxGeometry>
        </mxCell>
        <mxCell id="IiUNVA97wayGrPqKpcaN-57" value="" style="group" vertex="1" connectable="0" parent="1">
          <mxGeometry x="76" y="635" width="60" height="100" as="geometry" />
        </mxCell>
        <mxCell id="IiUNVA97wayGrPqKpcaN-58" value="" style="shape=partialRectangle;whiteSpace=wrap;html=1;bottom=1;right=1;left=1;top=0;fillColor=none;routingCenterX=-0.5;strokeColor=#00CC00;strokeWidth=2;" vertex="1" parent="IiUNVA97wayGrPqKpcaN-57">
          <mxGeometry x="56" width="60" height="20" as="geometry" />
        </mxCell>
        <mxCell id="IiUNVA97wayGrPqKpcaN-59" value="" style="endArrow=classic;html=1;rounded=0;strokeWidth=2;strokeColor=#00CC00;" edge="1" parent="IiUNVA97wayGrPqKpcaN-57">
          <mxGeometry width="50" height="50" relative="1" as="geometry">
            <mxPoint x="87.32999999999998" y="20" as="sourcePoint" />
            <mxPoint x="87.32999999999998" y="100" as="targetPoint" />
          </mxGeometry>
        </mxCell>
        <mxCell id="IiUNVA97wayGrPqKpcaN-60" value="supervised L1" style="edgeLabel;html=1;align=center;verticalAlign=middle;resizable=0;points=[];fontColor=#00CC00;" vertex="1" connectable="0" parent="IiUNVA97wayGrPqKpcaN-59">
          <mxGeometry x="-0.249" y="1" relative="1" as="geometry">
            <mxPoint x="-3" y="-1" as="offset" />
          </mxGeometry>
        </mxCell>
        <mxCell id="IiUNVA97wayGrPqKpcaN-61" value="" style="endArrow=classic;html=1;rounded=0;strokeColor=#3333FF;strokeWidth=2;entryX=0.5;entryY=0;entryDx=0;entryDy=0;exitX=0.5;exitY=1;exitDx=0;exitDy=0;" edge="1" parent="1">
          <mxGeometry width="50" height="50" relative="1" as="geometry">
            <mxPoint x="277" y="541" as="sourcePoint" />
            <mxPoint x="277" y="616" as="targetPoint" />
          </mxGeometry>
        </mxCell>
        <mxCell id="IiUNVA97wayGrPqKpcaN-62" value="WNP2" style="edgeLabel;html=1;align=center;verticalAlign=middle;resizable=0;points=[];fontColor=#3333FF;" vertex="1" connectable="0" parent="IiUNVA97wayGrPqKpcaN-61">
          <mxGeometry x="-0.2117" relative="1" as="geometry">
            <mxPoint y="-10" as="offset" />
          </mxGeometry>
        </mxCell>
        <mxCell id="IiUNVA97wayGrPqKpcaN-63" value="" style="line;strokeWidth=2;html=1;" vertex="1" parent="1">
          <mxGeometry x="50" y="731" width="303" height="10" as="geometry" />
        </mxCell>
        <mxCell id="IiUNVA97wayGrPqKpcaN-64" value="" style="group" vertex="1" connectable="0" parent="1">
          <mxGeometry x="125" y="421" width="60" height="58" as="geometry" />
        </mxCell>
        <mxCell id="IiUNVA97wayGrPqKpcaN-65" value="labeled&lt;br&gt;&lt;font color=&quot;#ff0000&quot; style=&quot;font-size: 14px;&quot;&gt;X1&lt;/font&gt;" style="text;html=1;strokeColor=none;fillColor=none;align=center;verticalAlign=middle;whiteSpace=wrap;rounded=0;" vertex="1" parent="IiUNVA97wayGrPqKpcaN-64">
          <mxGeometry x="-18" y="5" width="60" height="30" as="geometry" />
        </mxCell>
        <mxCell id="IiUNVA97wayGrPqKpcaN-66" value="" style="endArrow=classic;html=1;rounded=0;entryX=0.093;entryY=-0.015;entryDx=0;entryDy=0;entryPerimeter=0;strokeColor=#FF0000;strokeWidth=2;" edge="1" parent="IiUNVA97wayGrPqKpcaN-64">
          <mxGeometry width="50" height="50" relative="1" as="geometry">
            <mxPoint x="11" y="39" as="sourcePoint" />
            <mxPoint x="11" y="58" as="targetPoint" />
          </mxGeometry>
        </mxCell>
        <mxCell id="IiUNVA97wayGrPqKpcaN-67" value="" style="group" vertex="1" connectable="0" parent="1">
          <mxGeometry x="280" y="421" width="100" height="58" as="geometry" />
        </mxCell>
        <mxCell id="IiUNVA97wayGrPqKpcaN-68" value="weak noisy unlabeled&lt;br&gt;&lt;font color=&quot;#3333ff&quot; style=&quot;font-size: 14px;&quot;&gt;WNX2&lt;/font&gt;" style="text;html=1;strokeColor=none;fillColor=none;align=center;verticalAlign=middle;whiteSpace=wrap;rounded=0;" vertex="1" parent="IiUNVA97wayGrPqKpcaN-67">
          <mxGeometry x="-79" y="4" width="190" height="30" as="geometry" />
        </mxCell>
        <mxCell id="IiUNVA97wayGrPqKpcaN-69" value="" style="endArrow=classic;html=1;rounded=0;entryX=0.093;entryY=-0.015;entryDx=0;entryDy=0;entryPerimeter=0;strokeColor=#3333FF;strokeWidth=2;" edge="1" parent="IiUNVA97wayGrPqKpcaN-67">
          <mxGeometry width="50" height="50" relative="1" as="geometry">
            <mxPoint x="15" y="39" as="sourcePoint" />
            <mxPoint x="15" y="58" as="targetPoint" />
          </mxGeometry>
        </mxCell>
        <mxCell id="IiUNVA97wayGrPqKpcaN-70" value="" style="group" vertex="1" connectable="0" parent="1">
          <mxGeometry x="429" y="422" width="100" height="58" as="geometry" />
        </mxCell>
        <mxCell id="IiUNVA97wayGrPqKpcaN-71" value="strong noisy unlabeled&lt;br&gt;&lt;font color=&quot;#3333ff&quot; style=&quot;font-size: 14px;&quot;&gt;SNX2&lt;/font&gt;" style="text;html=1;strokeColor=none;fillColor=none;align=center;verticalAlign=middle;whiteSpace=wrap;rounded=0;" vertex="1" parent="IiUNVA97wayGrPqKpcaN-70">
          <mxGeometry x="-82" y="4" width="190" height="30" as="geometry" />
        </mxCell>
        <mxCell id="IiUNVA97wayGrPqKpcaN-72" value="" style="endArrow=classic;html=1;rounded=0;entryX=0.093;entryY=-0.015;entryDx=0;entryDy=0;entryPerimeter=0;strokeColor=#3333FF;strokeWidth=2;" edge="1" parent="IiUNVA97wayGrPqKpcaN-70">
          <mxGeometry width="50" height="50" relative="1" as="geometry">
            <mxPoint x="15" y="39" as="sourcePoint" />
            <mxPoint x="15" y="58" as="targetPoint" />
          </mxGeometry>
        </mxCell>
        <mxCell id="IiUNVA97wayGrPqKpcaN-73" value="&lt;ul&gt;&lt;li&gt;&lt;font color=&quot;#ff0000&quot; style=&quot;font-size: 11px;&quot;&gt;X1: labeled data&lt;/font&gt;&lt;/li&gt;&lt;li&gt;&lt;font color=&quot;#3333ff&quot; style=&quot;font-size: 11px;&quot;&gt;X2: unlabeled data&lt;/font&gt;&lt;/li&gt;&lt;li&gt;&lt;font color=&quot;#00cc00&quot; style=&quot;font-size: 11px;&quot;&gt;GT: ground truth&lt;/font&gt;&lt;/li&gt;&lt;li&gt;&lt;font style=&quot;font-size: 11px;&quot;&gt;P: prediction&lt;/font&gt;&lt;/li&gt;&lt;li&gt;&lt;font style=&quot;font-size: 11px;&quot;&gt;PL: pseudo label&lt;/font&gt;&lt;/li&gt;&lt;li&gt;&lt;font style=&quot;font-size: 11px;&quot;&gt;N: noise&lt;/font&gt;&lt;/li&gt;&lt;li&gt;&lt;font style=&quot;font-size: 11px;&quot;&gt;W: weak&lt;/font&gt;&lt;/li&gt;&lt;li&gt;&lt;font style=&quot;font-size: 11px;&quot;&gt;S: strong&lt;/font&gt;&lt;/li&gt;&lt;li&gt;&lt;font style=&quot;font-size: 11px;&quot;&gt;L: loss&lt;/font&gt;&lt;/li&gt;&lt;/ul&gt;" style="text;html=1;strokeColor=default;fillColor=#E6E6E6;align=left;verticalAlign=middle;whiteSpace=wrap;rounded=1;fontSize=10;strokeWidth=1;spacing=-21;glass=0;shadow=0;" vertex="1" parent="1">
          <mxGeometry x="415" y="610" width="115" height="126" as="geometry" />
        </mxCell>
        <mxCell id="IiUNVA97wayGrPqKpcaN-74" value="" style="edgeStyle=orthogonalEdgeStyle;rounded=0;orthogonalLoop=1;jettySize=auto;html=1;strokeWidth=2;" edge="1" parent="1" source="IiUNVA97wayGrPqKpcaN-75" target="IiUNVA97wayGrPqKpcaN-77">
          <mxGeometry relative="1" as="geometry" />
        </mxCell>
        <mxCell id="IiUNVA97wayGrPqKpcaN-75" value="model" style="rounded=1;whiteSpace=wrap;html=1;fontSize=14;fontStyle=1;strokeWidth=2;" vertex="1" parent="1">
          <mxGeometry x="631" y="481" width="120" height="60" as="geometry" />
        </mxCell>
        <mxCell id="IiUNVA97wayGrPqKpcaN-76" value="" style="edgeStyle=orthogonalEdgeStyle;rounded=0;orthogonalLoop=1;jettySize=auto;html=1;strokeWidth=2;" edge="1" parent="1" source="IiUNVA97wayGrPqKpcaN-77" target="IiUNVA97wayGrPqKpcaN-80">
          <mxGeometry relative="1" as="geometry" />
        </mxCell>
        <mxCell id="IiUNVA97wayGrPqKpcaN-77" value="model" style="rounded=1;whiteSpace=wrap;html=1;fontSize=14;fontStyle=1;strokeWidth=2;" vertex="1" parent="1">
          <mxGeometry x="785" y="481" width="120" height="60" as="geometry" />
        </mxCell>
        <mxCell id="IiUNVA97wayGrPqKpcaN-78" value="&lt;font color=&quot;#ff0000&quot; style=&quot;font-size: 14px;&quot;&gt;P1&lt;/font&gt;" style="text;html=1;strokeColor=none;fillColor=none;align=center;verticalAlign=middle;whiteSpace=wrap;rounded=0;" vertex="1" parent="1">
          <mxGeometry x="665" y="616" width="50" height="20" as="geometry" />
        </mxCell>
        <mxCell id="IiUNVA97wayGrPqKpcaN-79" value="&lt;font color=&quot;#00cc00&quot; style=&quot;font-size: 14px;&quot;&gt;GT&lt;/font&gt;" style="text;html=1;strokeColor=none;fillColor=none;align=center;verticalAlign=middle;whiteSpace=wrap;rounded=0;" vertex="1" parent="1">
          <mxGeometry x="736" y="616" width="20" height="20" as="geometry" />
        </mxCell>
        <mxCell id="IiUNVA97wayGrPqKpcaN-80" value="model" style="rounded=1;whiteSpace=wrap;html=1;fontSize=14;fontStyle=1;strokeWidth=2;" vertex="1" parent="1">
          <mxGeometry x="939" y="481" width="120" height="60" as="geometry" />
        </mxCell>
        <mxCell id="IiUNVA97wayGrPqKpcaN-81" value="&lt;font color=&quot;#3333ff&quot; style=&quot;font-size: 14px;&quot;&gt;SNP2&lt;/font&gt;" style="text;html=1;strokeColor=none;fillColor=none;align=center;verticalAlign=middle;whiteSpace=wrap;rounded=0;" vertex="1" parent="1">
          <mxGeometry x="973" y="616" width="50" height="20" as="geometry" />
        </mxCell>
        <mxCell id="IiUNVA97wayGrPqKpcaN-82" value="&lt;font style=&quot;font-size: 14px;&quot;&gt;PL2=\(\mu\)(WN&lt;sub&gt;&lt;i&gt;i&lt;/i&gt;&lt;/sub&gt;P2)&lt;/font&gt;" style="text;html=1;strokeColor=none;fillColor=none;align=center;verticalAlign=middle;whiteSpace=wrap;rounded=0;fontColor=#00CC00;" vertex="1" parent="1">
          <mxGeometry x="796" y="614" width="100" height="24" as="geometry" />
        </mxCell>
        <mxCell id="IiUNVA97wayGrPqKpcaN-83" value="" style="edgeStyle=elbowEdgeStyle;elbow=vertical;endArrow=classic;html=1;curved=0;rounded=0;endSize=8;startSize=8;entryX=0;entryY=0.5;entryDx=0;entryDy=0;strokeWidth=2;exitX=0;exitY=0.5;exitDx=0;exitDy=0;exitPerimeter=0;" edge="1" parent="1" source="IiUNVA97wayGrPqKpcaN-96">
          <mxGeometry width="50" height="50" relative="1" as="geometry">
            <mxPoint x="599" y="720" as="sourcePoint" />
            <mxPoint x="631" y="515" as="targetPoint" />
            <Array as="points">
              <mxPoint x="599" y="515" />
              <mxPoint x="599" y="515" />
              <mxPoint x="561" y="515" />
              <mxPoint x="531" y="645" />
              <mxPoint x="561" y="515" />
              <mxPoint x="481" y="635" />
              <mxPoint x="561" y="515" />
            </Array>
          </mxGeometry>
        </mxCell>
        <mxCell id="IiUNVA97wayGrPqKpcaN-84" value="" style="endArrow=classic;html=1;rounded=0;exitX=0.25;exitY=1;exitDx=0;exitDy=0;strokeColor=#3333FF;strokeWidth=2;" edge="1" parent="1">
          <mxGeometry width="50" height="50" relative="1" as="geometry">
            <mxPoint x="998" y="541" as="sourcePoint" />
            <mxPoint x="998" y="613" as="targetPoint" />
          </mxGeometry>
        </mxCell>
        <mxCell id="IiUNVA97wayGrPqKpcaN-85" value="" style="group" vertex="1" connectable="0" parent="1">
          <mxGeometry x="828" y="636" width="195" height="100" as="geometry" />
        </mxCell>
        <mxCell id="IiUNVA97wayGrPqKpcaN-86" value="" style="shape=partialRectangle;whiteSpace=wrap;html=1;bottom=1;right=1;left=1;top=0;fillColor=none;routingCenterX=-0.5;strokeColor=#00CC00;strokeWidth=2;" vertex="1" parent="IiUNVA97wayGrPqKpcaN-85">
          <mxGeometry x="14.41" width="156" height="20" as="geometry" />
        </mxCell>
        <mxCell id="IiUNVA97wayGrPqKpcaN-87" value="" style="endArrow=classic;html=1;rounded=0;strokeColor=#3333FF;strokeWidth=2;" edge="1" parent="IiUNVA97wayGrPqKpcaN-85">
          <mxGeometry width="50" height="50" relative="1" as="geometry">
            <mxPoint x="105" y="-75" as="sourcePoint" />
            <mxPoint x="105.13043478260869" y="100" as="targetPoint" />
          </mxGeometry>
        </mxCell>
        <mxCell id="IiUNVA97wayGrPqKpcaN-88" value="consistency L" style="edgeLabel;html=1;align=center;verticalAlign=middle;resizable=0;points=[];fontColor=#3333FF;" vertex="1" connectable="0" parent="IiUNVA97wayGrPqKpcaN-87">
          <mxGeometry x="-0.2117" relative="1" as="geometry">
            <mxPoint x="13" y="-27" as="offset" />
          </mxGeometry>
        </mxCell>
        <mxCell id="IiUNVA97wayGrPqKpcaN-89" value="" style="endArrow=classic;html=1;rounded=0;exitX=0.25;exitY=1;exitDx=0;exitDy=0;strokeWidth=2;strokeColor=#FF0000;" edge="1" parent="1">
          <mxGeometry width="50" height="50" relative="1" as="geometry">
            <mxPoint x="689.6700000000001" y="541" as="sourcePoint" />
            <mxPoint x="689.6700000000001" y="613" as="targetPoint" />
          </mxGeometry>
        </mxCell>
        <mxCell id="IiUNVA97wayGrPqKpcaN-90" value="" style="group" vertex="1" connectable="0" parent="1">
          <mxGeometry x="631" y="635" width="60" height="100" as="geometry" />
        </mxCell>
        <mxCell id="IiUNVA97wayGrPqKpcaN-91" value="" style="shape=partialRectangle;whiteSpace=wrap;html=1;bottom=1;right=1;left=1;top=0;fillColor=none;routingCenterX=-0.5;strokeColor=#00CC00;strokeWidth=2;" vertex="1" parent="IiUNVA97wayGrPqKpcaN-90">
          <mxGeometry x="56" width="60" height="20" as="geometry" />
        </mxCell>
        <mxCell id="IiUNVA97wayGrPqKpcaN-92" value="" style="endArrow=classic;html=1;rounded=0;strokeWidth=2;strokeColor=#00CC00;" edge="1" parent="IiUNVA97wayGrPqKpcaN-90">
          <mxGeometry width="50" height="50" relative="1" as="geometry">
            <mxPoint x="87.32999999999998" y="20" as="sourcePoint" />
            <mxPoint x="87.32999999999998" y="100" as="targetPoint" />
          </mxGeometry>
        </mxCell>
        <mxCell id="IiUNVA97wayGrPqKpcaN-93" value="supervised L1" style="edgeLabel;html=1;align=center;verticalAlign=middle;resizable=0;points=[];fontColor=#00CC00;" vertex="1" connectable="0" parent="IiUNVA97wayGrPqKpcaN-92">
          <mxGeometry x="-0.249" y="1" relative="1" as="geometry">
            <mxPoint x="-3" y="-1" as="offset" />
          </mxGeometry>
        </mxCell>
        <mxCell id="IiUNVA97wayGrPqKpcaN-94" value="" style="endArrow=classic;html=1;rounded=0;strokeColor=#3333FF;strokeWidth=2;entryX=0.5;entryY=0;entryDx=0;entryDy=0;exitX=0.5;exitY=1;exitDx=0;exitDy=0;" edge="1" parent="1" source="IiUNVA97wayGrPqKpcaN-77" target="IiUNVA97wayGrPqKpcaN-82">
          <mxGeometry width="50" height="50" relative="1" as="geometry">
            <mxPoint x="871" y="540" as="sourcePoint" />
            <mxPoint x="871" y="600" as="targetPoint" />
          </mxGeometry>
        </mxCell>
        <mxCell id="IiUNVA97wayGrPqKpcaN-95" value="\(\sigma\)[WN&lt;i&gt;&lt;sub&gt;i&lt;/sub&gt;&lt;/i&gt;P2]&amp;lt; \(\tau\)" style="edgeLabel;html=1;align=center;verticalAlign=middle;resizable=0;points=[];fontColor=#3333FF;" vertex="1" connectable="0" parent="IiUNVA97wayGrPqKpcaN-94">
          <mxGeometry x="-0.2117" relative="1" as="geometry">
            <mxPoint y="15" as="offset" />
          </mxGeometry>
        </mxCell>
        <mxCell id="IiUNVA97wayGrPqKpcaN-96" value="" style="line;strokeWidth=2;html=1;" vertex="1" parent="1">
          <mxGeometry x="606" y="731" width="328" height="10" as="geometry" />
        </mxCell>
        <mxCell id="IiUNVA97wayGrPqKpcaN-97" value="" style="group" vertex="1" connectable="0" parent="1">
          <mxGeometry x="680" y="421" width="105" height="58" as="geometry" />
        </mxCell>
        <mxCell id="IiUNVA97wayGrPqKpcaN-98" value="labeled&lt;br&gt;&lt;font color=&quot;#ff0000&quot; style=&quot;font-size: 14px;&quot;&gt;X1&lt;/font&gt;" style="text;html=1;strokeColor=none;fillColor=none;align=center;verticalAlign=middle;whiteSpace=wrap;rounded=0;" vertex="1" parent="IiUNVA97wayGrPqKpcaN-97">
          <mxGeometry x="-18" y="5" width="60" height="30" as="geometry" />
        </mxCell>
        <mxCell id="IiUNVA97wayGrPqKpcaN-99" value="" style="endArrow=classic;html=1;rounded=0;entryX=0.093;entryY=-0.015;entryDx=0;entryDy=0;entryPerimeter=0;strokeColor=#FF0000;strokeWidth=2;" edge="1" parent="IiUNVA97wayGrPqKpcaN-97">
          <mxGeometry width="50" height="50" relative="1" as="geometry">
            <mxPoint x="11" y="39" as="sourcePoint" />
            <mxPoint x="11" y="58" as="targetPoint" />
          </mxGeometry>
        </mxCell>
        <mxCell id="IiUNVA97wayGrPqKpcaN-100" value="" style="group" vertex="1" connectable="0" parent="1">
          <mxGeometry x="830" y="421" width="111" height="58" as="geometry" />
        </mxCell>
        <mxCell id="IiUNVA97wayGrPqKpcaN-101" value="" style="endArrow=classic;html=1;rounded=0;entryX=0.093;entryY=-0.015;entryDx=0;entryDy=0;entryPerimeter=0;strokeColor=#3333FF;strokeWidth=2;" edge="1" parent="IiUNVA97wayGrPqKpcaN-100">
          <mxGeometry width="50" height="50" relative="1" as="geometry">
            <mxPoint x="15" y="39" as="sourcePoint" />
            <mxPoint x="15" y="58" as="targetPoint" />
          </mxGeometry>
        </mxCell>
        <mxCell id="IiUNVA97wayGrPqKpcaN-102" value="" style="group" vertex="1" connectable="0" parent="1">
          <mxGeometry x="1008" y="422" width="100" height="58" as="geometry" />
        </mxCell>
        <mxCell id="IiUNVA97wayGrPqKpcaN-103" value="strong noisy unlabeled&lt;br&gt;&lt;font color=&quot;#3333ff&quot; style=&quot;font-size: 14px;&quot;&gt;SNX2&lt;/font&gt;" style="text;html=1;strokeColor=none;fillColor=none;align=center;verticalAlign=middle;whiteSpace=wrap;rounded=0;" vertex="1" parent="IiUNVA97wayGrPqKpcaN-102">
          <mxGeometry x="-104" y="4" width="190" height="30" as="geometry" />
        </mxCell>
        <mxCell id="IiUNVA97wayGrPqKpcaN-104" value="" style="endArrow=classic;html=1;rounded=0;entryX=0.093;entryY=-0.015;entryDx=0;entryDy=0;entryPerimeter=0;strokeColor=#3333FF;strokeWidth=2;" edge="1" parent="IiUNVA97wayGrPqKpcaN-102">
          <mxGeometry width="50" height="50" relative="1" as="geometry">
            <mxPoint x="-9" y="39" as="sourcePoint" />
            <mxPoint x="-9" y="58" as="targetPoint" />
          </mxGeometry>
        </mxCell>
        <mxCell id="IiUNVA97wayGrPqKpcaN-105" value="weak noisy unlabeled&lt;br&gt;&lt;font style=&quot;border-color: var(--border-color); font-size: 14px;&quot; color=&quot;#3333ff&quot;&gt;WNX2&amp;nbsp;&lt;/font&gt;&lt;font color=&quot;#3333ff&quot; style=&quot;font-size: 14px;&quot;&gt;[WN&lt;i&gt;&lt;sub&gt;i&lt;/sub&gt;&lt;/i&gt;X2]&lt;/font&gt;" style="text;html=1;strokeColor=none;fillColor=none;align=left;verticalAlign=middle;whiteSpace=wrap;rounded=0;" vertex="1" parent="1">
          <mxGeometry x="790" y="428" width="141" height="30" as="geometry" />
        </mxCell>
        <mxCell id="IiUNVA97wayGrPqKpcaN-106" value="" style="endArrow=none;html=1;rounded=0;strokeWidth=2;strokeColor=#3333FF;endFill=0;" edge="1" parent="1">
          <mxGeometry width="50" height="50" relative="1" as="geometry">
            <mxPoint x="398" y="560" as="sourcePoint" />
            <mxPoint x="298" y="560" as="targetPoint" />
          </mxGeometry>
        </mxCell>
        <mxCell id="IiUNVA97wayGrPqKpcaN-107" value="" style="endArrow=classic;html=1;rounded=0;strokeWidth=2;strokeColor=#00CC00;" edge="1" parent="1">
          <mxGeometry width="50" height="50" relative="1" as="geometry">
            <mxPoint x="319" y="657" as="sourcePoint" />
            <mxPoint x="319" y="736" as="targetPoint" />
          </mxGeometry>
        </mxCell>
        <mxCell id="IiUNVA97wayGrPqKpcaN-108" value="supervised L2" style="edgeLabel;html=1;align=center;verticalAlign=middle;resizable=0;points=[];fontColor=#00CC00;" vertex="1" connectable="0" parent="IiUNVA97wayGrPqKpcaN-107">
          <mxGeometry x="-0.249" y="1" relative="1" as="geometry">
            <mxPoint x="-7" y="-1" as="offset" />
          </mxGeometry>
        </mxCell>
        <mxCell id="IiUNVA97wayGrPqKpcaN-109" value="WNP2" style="edgeLabel;html=1;align=center;verticalAlign=middle;resizable=0;points=[];fontColor=#3333FF;" vertex="1" connectable="0" parent="1">
          <mxGeometry x="845" y="562" as="geometry">
            <mxPoint x="-1" y="-1" as="offset" />
          </mxGeometry>
        </mxCell>
        <mxCell id="IiUNVA97wayGrPqKpcaN-110" value="" style="endArrow=none;html=1;rounded=0;strokeWidth=2;strokeColor=#3333FF;endFill=0;" edge="1" parent="1">
          <mxGeometry width="50" height="50" relative="1" as="geometry">
            <mxPoint x="998" y="562" as="sourcePoint" />
            <mxPoint x="866" y="562" as="targetPoint" />
          </mxGeometry>
        </mxCell>
        <mxCell id="IiUNVA97wayGrPqKpcaN-111" value="" style="endArrow=classic;html=1;rounded=0;strokeWidth=2;strokeColor=#00CC00;" edge="1" parent="1">
          <mxGeometry width="50" height="50" relative="1" as="geometry">
            <mxPoint x="896" y="657" as="sourcePoint" />
            <mxPoint x="896.3299999999999" y="736" as="targetPoint" />
          </mxGeometry>
        </mxCell>
        <mxCell id="IiUNVA97wayGrPqKpcaN-112" value="supervised L2" style="edgeLabel;html=1;align=center;verticalAlign=middle;resizable=0;points=[];fontColor=#00CC00;" vertex="1" connectable="0" parent="IiUNVA97wayGrPqKpcaN-111">
          <mxGeometry x="-0.249" y="1" relative="1" as="geometry">
            <mxPoint x="-3" y="-1" as="offset" />
          </mxGeometry>
        </mxCell>
        <mxCell id="IiUNVA97wayGrPqKpcaN-113" style="edgeStyle=orthogonalEdgeStyle;rounded=0;orthogonalLoop=1;jettySize=auto;html=1;entryX=0;entryY=0.5;entryDx=0;entryDy=0;strokeWidth=2;dashed=1;" edge="1" parent="1" source="IiUNVA97wayGrPqKpcaN-114" target="IiUNVA97wayGrPqKpcaN-115">
          <mxGeometry relative="1" as="geometry" />
        </mxCell>
        <mxCell id="IiUNVA97wayGrPqKpcaN-114" value="student model" style="rounded=1;whiteSpace=wrap;html=1;fontSize=14;fontStyle=1;strokeWidth=2;" vertex="1" parent="1">
          <mxGeometry x="649" y="103" width="191" height="60" as="geometry" />
        </mxCell>
        <mxCell id="IiUNVA97wayGrPqKpcaN-115" value="teacher model" style="rounded=1;whiteSpace=wrap;html=1;fontSize=14;fontStyle=1;strokeWidth=2;" vertex="1" parent="1">
          <mxGeometry x="932" y="103" width="120" height="60" as="geometry" />
        </mxCell>
        <mxCell id="IiUNVA97wayGrPqKpcaN-116" value="" style="group;align=center;" vertex="1" connectable="0" parent="1">
          <mxGeometry x="667" y="50" width="50" height="51.10000000000002" as="geometry" />
        </mxCell>
        <mxCell id="IiUNVA97wayGrPqKpcaN-117" value="labeled&lt;br&gt;&lt;font color=&quot;#ff0000&quot; style=&quot;font-size: 14px;&quot;&gt;X1&lt;/font&gt;" style="text;html=1;strokeColor=none;fillColor=none;align=left;verticalAlign=middle;whiteSpace=wrap;rounded=0;" vertex="1" parent="IiUNVA97wayGrPqKpcaN-116">
          <mxGeometry x="-3" width="50" height="30" as="geometry" />
        </mxCell>
        <mxCell id="IiUNVA97wayGrPqKpcaN-118" value="" style="endArrow=classic;html=1;rounded=0;entryX=0.093;entryY=-0.015;entryDx=0;entryDy=0;entryPerimeter=0;strokeColor=#FF0000;strokeWidth=2;" edge="1" parent="IiUNVA97wayGrPqKpcaN-116">
          <mxGeometry width="50" height="50" relative="1" as="geometry">
            <mxPoint x="11" y="32" as="sourcePoint" />
            <mxPoint x="11.160000000000082" y="51.10000000000002" as="targetPoint" />
          </mxGeometry>
        </mxCell>
        <mxCell id="IiUNVA97wayGrPqKpcaN-119" value="" style="group" vertex="1" connectable="0" parent="1">
          <mxGeometry x="722" y="50" width="150" height="51" as="geometry" />
        </mxCell>
        <mxCell id="IiUNVA97wayGrPqKpcaN-120" value="weak noisy unlabeled&lt;br&gt;&lt;font color=&quot;#3333ff&quot; style=&quot;font-size: 14px;&quot;&gt;WNX2&lt;/font&gt;" style="text;html=1;strokeColor=none;fillColor=none;align=left;verticalAlign=middle;whiteSpace=wrap;rounded=0;" vertex="1" parent="IiUNVA97wayGrPqKpcaN-119">
          <mxGeometry x="-11" y="-13" width="61" height="30" as="geometry" />
        </mxCell>
        <mxCell id="IiUNVA97wayGrPqKpcaN-121" value="" style="endArrow=classic;html=1;rounded=0;entryX=0.093;entryY=-0.015;entryDx=0;entryDy=0;entryPerimeter=0;strokeColor=#3333FF;strokeWidth=2;" edge="1" parent="IiUNVA97wayGrPqKpcaN-119">
          <mxGeometry width="50" height="50" relative="1" as="geometry">
            <mxPoint x="9" y="32" as="sourcePoint" />
            <mxPoint x="9" y="51" as="targetPoint" />
          </mxGeometry>
        </mxCell>
        <mxCell id="IiUNVA97wayGrPqKpcaN-122" value="" style="group" vertex="1" connectable="0" parent="1">
          <mxGeometry x="949" y="43" width="60" height="58" as="geometry" />
        </mxCell>
        <mxCell id="IiUNVA97wayGrPqKpcaN-123" value="strong noisy&lt;br&gt;labeled&lt;br&gt;&lt;font color=&quot;#ff0000&quot; style=&quot;font-size: 14px;&quot;&gt;SNX1&lt;/font&gt;" style="text;html=1;strokeColor=none;fillColor=none;align=left;verticalAlign=middle;whiteSpace=wrap;rounded=0;" vertex="1" parent="IiUNVA97wayGrPqKpcaN-122">
          <mxGeometry x="-9" y="-4" width="60" height="30" as="geometry" />
        </mxCell>
        <mxCell id="IiUNVA97wayGrPqKpcaN-124" value="" style="endArrow=classic;html=1;rounded=0;entryX=0.093;entryY=-0.015;entryDx=0;entryDy=0;entryPerimeter=0;strokeColor=#FF0000;strokeWidth=2;" edge="1" parent="IiUNVA97wayGrPqKpcaN-122">
          <mxGeometry width="50" height="50" relative="1" as="geometry">
            <mxPoint x="11" y="39" as="sourcePoint" />
            <mxPoint x="11" y="58" as="targetPoint" />
          </mxGeometry>
        </mxCell>
        <mxCell id="IiUNVA97wayGrPqKpcaN-125" value="" style="group" vertex="1" connectable="0" parent="1">
          <mxGeometry x="1002" y="43" width="60" height="58" as="geometry" />
        </mxCell>
        <mxCell id="IiUNVA97wayGrPqKpcaN-126" value="strong noisy&lt;br&gt;unlabeled&lt;br&gt;&lt;font color=&quot;#3333ff&quot; style=&quot;font-size: 14px;&quot;&gt;SNX2&lt;/font&gt;" style="text;html=1;strokeColor=none;fillColor=none;align=left;verticalAlign=middle;whiteSpace=wrap;rounded=0;" vertex="1" parent="IiUNVA97wayGrPqKpcaN-125">
          <mxGeometry x="-4" y="-4" width="60" height="30" as="geometry" />
        </mxCell>
        <mxCell id="IiUNVA97wayGrPqKpcaN-127" value="" style="endArrow=classic;html=1;rounded=0;entryX=0.093;entryY=-0.015;entryDx=0;entryDy=0;entryPerimeter=0;strokeColor=#3333FF;strokeWidth=2;" edge="1" parent="IiUNVA97wayGrPqKpcaN-125">
          <mxGeometry width="50" height="50" relative="1" as="geometry">
            <mxPoint x="15" y="39" as="sourcePoint" />
            <mxPoint x="15" y="58" as="targetPoint" />
          </mxGeometry>
        </mxCell>
        <mxCell id="IiUNVA97wayGrPqKpcaN-128" value="" style="endArrow=classic;html=1;rounded=0;exitX=0.25;exitY=1;exitDx=0;exitDy=0;strokeWidth=2;strokeColor=#FF0000;" edge="1" parent="1">
          <mxGeometry width="50" height="50" relative="1" as="geometry">
            <mxPoint x="677" y="163" as="sourcePoint" />
            <mxPoint x="677" y="233" as="targetPoint" />
          </mxGeometry>
        </mxCell>
        <mxCell id="IiUNVA97wayGrPqKpcaN-129" value="" style="endArrow=classic;html=1;rounded=0;exitX=0.25;exitY=1;exitDx=0;exitDy=0;strokeWidth=2;strokeColor=#3333FF;" edge="1" parent="1">
          <mxGeometry width="50" height="50" relative="1" as="geometry">
            <mxPoint x="734" y="163" as="sourcePoint" />
            <mxPoint x="734" y="233" as="targetPoint" />
          </mxGeometry>
        </mxCell>
        <mxCell id="IiUNVA97wayGrPqKpcaN-130" value="" style="endArrow=classic;html=1;rounded=0;exitX=0.25;exitY=1;exitDx=0;exitDy=0;strokeWidth=2;strokeColor=#FF0000;" edge="1" parent="1">
          <mxGeometry width="50" height="50" relative="1" as="geometry">
            <mxPoint x="960" y="163" as="sourcePoint" />
            <mxPoint x="960" y="233" as="targetPoint" />
          </mxGeometry>
        </mxCell>
        <mxCell id="IiUNVA97wayGrPqKpcaN-131" value="" style="endArrow=classic;html=1;rounded=0;exitX=0.25;exitY=1;exitDx=0;exitDy=0;strokeColor=#3333FF;strokeWidth=2;" edge="1" parent="1">
          <mxGeometry width="50" height="50" relative="1" as="geometry">
            <mxPoint x="1018" y="163" as="sourcePoint" />
            <mxPoint x="1018" y="233" as="targetPoint" />
          </mxGeometry>
        </mxCell>
        <mxCell id="IiUNVA97wayGrPqKpcaN-132" value="&lt;font color=&quot;#ff0000&quot; style=&quot;font-size: 14px;&quot;&gt;P1&lt;/font&gt;" style="text;html=1;strokeColor=none;fillColor=none;align=center;verticalAlign=middle;whiteSpace=wrap;rounded=0;" vertex="1" parent="1">
          <mxGeometry x="654" y="233" width="50" height="20" as="geometry" />
        </mxCell>
        <mxCell id="IiUNVA97wayGrPqKpcaN-133" value="&lt;font color=&quot;#3333ff&quot; style=&quot;font-size: 14px;&quot;&gt;WNP2&lt;/font&gt;" style="text;html=1;strokeColor=none;fillColor=none;align=center;verticalAlign=middle;whiteSpace=wrap;rounded=0;" vertex="1" parent="1">
          <mxGeometry x="711" y="233" width="50" height="20" as="geometry" />
        </mxCell>
        <mxCell id="IiUNVA97wayGrPqKpcaN-134" value="&lt;font color=&quot;#ff0000&quot; style=&quot;font-size: 14px;&quot;&gt;SNP1&lt;/font&gt;" style="text;html=1;strokeColor=none;fillColor=none;align=center;verticalAlign=middle;whiteSpace=wrap;rounded=0;" vertex="1" parent="1">
          <mxGeometry x="935" y="233" width="50" height="20" as="geometry" />
        </mxCell>
        <mxCell id="IiUNVA97wayGrPqKpcaN-135" value="&lt;font color=&quot;#3333ff&quot; style=&quot;font-size: 14px;&quot;&gt;SNP2&lt;/font&gt;" style="text;html=1;strokeColor=none;fillColor=none;align=center;verticalAlign=middle;whiteSpace=wrap;rounded=0;" vertex="1" parent="1">
          <mxGeometry x="993" y="233" width="50" height="20" as="geometry" />
        </mxCell>
        <mxCell id="IiUNVA97wayGrPqKpcaN-136" value="&lt;font color=&quot;#00cc00&quot; style=&quot;font-size: 14px;&quot;&gt;GT&lt;/font&gt;" style="text;html=1;strokeColor=none;fillColor=none;align=center;verticalAlign=middle;whiteSpace=wrap;rounded=0;" vertex="1" parent="1">
          <mxGeometry x="599" y="233" width="50" height="20" as="geometry" />
        </mxCell>
        <mxCell id="IiUNVA97wayGrPqKpcaN-137" value="" style="shape=partialRectangle;whiteSpace=wrap;html=1;bottom=1;right=1;left=1;top=0;fillColor=none;routingCenterX=-0.5;strokeColor=#00CC00;strokeWidth=2;" vertex="1" parent="1">
          <mxGeometry x="621" y="253" width="56" height="20" as="geometry" />
        </mxCell>
        <mxCell id="IiUNVA97wayGrPqKpcaN-138" value="" style="shape=partialRectangle;whiteSpace=wrap;html=1;bottom=1;right=1;left=1;top=0;fillColor=none;routingCenterX=-0.5;strokeColor=#FF0000;strokeWidth=2;" vertex="1" parent="1">
          <mxGeometry x="684" y="253" width="276" height="20" as="geometry" />
        </mxCell>
        <mxCell id="IiUNVA97wayGrPqKpcaN-139" value="" style="shape=partialRectangle;whiteSpace=wrap;html=1;bottom=1;right=1;left=1;top=0;fillColor=none;routingCenterX=-0.5;strokeColor=#3333FF;strokeWidth=2;" vertex="1" parent="1">
          <mxGeometry x="735" y="253" width="285" height="40" as="geometry" />
        </mxCell>
        <mxCell id="IiUNVA97wayGrPqKpcaN-140" value="&lt;font style=&quot;font-size: 11px;&quot;&gt;G&lt;/font&gt;" style="text;html=1;strokeColor=none;fillColor=none;align=center;verticalAlign=middle;whiteSpace=wrap;rounded=0;fontSize=11;" vertex="1" parent="1">
          <mxGeometry x="607" y="130" width="31" height="20" as="geometry" />
        </mxCell>
        <mxCell id="IiUNVA97wayGrPqKpcaN-141" value="&lt;font style=&quot;font-size: 11px;&quot;&gt;no G&lt;/font&gt;" style="text;html=1;strokeColor=none;fillColor=none;align=center;verticalAlign=middle;whiteSpace=wrap;rounded=0;fontSize=11;" vertex="1" parent="1">
          <mxGeometry x="875" y="131" width="56" height="20" as="geometry" />
        </mxCell>
        <mxCell id="IiUNVA97wayGrPqKpcaN-142" value="&lt;font style=&quot;font-size: 14px;&quot;&gt;EMA&lt;/font&gt;" style="text;html=1;strokeColor=none;fillColor=none;align=center;verticalAlign=middle;whiteSpace=wrap;rounded=0;" vertex="1" parent="1">
          <mxGeometry x="863" y="112" width="60" height="20" as="geometry" />
        </mxCell>
        <mxCell id="IiUNVA97wayGrPqKpcaN-143" value="" style="edgeStyle=elbowEdgeStyle;elbow=vertical;endArrow=classic;html=1;curved=0;rounded=0;endSize=8;startSize=8;entryX=0;entryY=0.5;entryDx=0;entryDy=0;strokeWidth=2;exitX=0;exitY=0.5;exitDx=0;exitDy=0;exitPerimeter=0;" edge="1" parent="1" source="IiUNVA97wayGrPqKpcaN-150" target="IiUNVA97wayGrPqKpcaN-114">
          <mxGeometry width="50" height="50" relative="1" as="geometry">
            <mxPoint x="579" y="353" as="sourcePoint" />
            <mxPoint x="559" y="333" as="targetPoint" />
            <Array as="points">
              <mxPoint x="607" y="133" />
              <mxPoint x="549" y="263" />
              <mxPoint x="579" y="133" />
              <mxPoint x="499" y="253" />
              <mxPoint x="579" y="133" />
            </Array>
          </mxGeometry>
        </mxCell>
        <mxCell id="IiUNVA97wayGrPqKpcaN-144" value="" style="endArrow=classic;html=1;rounded=0;strokeColor=#3333FF;strokeWidth=2;" edge="1" parent="1">
          <mxGeometry width="50" height="50" relative="1" as="geometry">
            <mxPoint x="879" y="293" as="sourcePoint" />
            <mxPoint x="879" y="353" as="targetPoint" />
          </mxGeometry>
        </mxCell>
        <mxCell id="IiUNVA97wayGrPqKpcaN-145" value="consistency L2" style="edgeLabel;html=1;align=center;verticalAlign=middle;resizable=0;points=[];fontColor=#3333FF;" vertex="1" connectable="0" parent="IiUNVA97wayGrPqKpcaN-144">
          <mxGeometry x="-0.2117" relative="1" as="geometry">
            <mxPoint y="-6" as="offset" />
          </mxGeometry>
        </mxCell>
        <mxCell id="IiUNVA97wayGrPqKpcaN-146" value="" style="endArrow=classic;html=1;rounded=0;strokeColor=#FF0000;strokeWidth=2;" edge="1" parent="1">
          <mxGeometry width="50" height="50" relative="1" as="geometry">
            <mxPoint x="799" y="273" as="sourcePoint" />
            <mxPoint x="799" y="353" as="targetPoint" />
          </mxGeometry>
        </mxCell>
        <mxCell id="IiUNVA97wayGrPqKpcaN-147" value="consistency L1" style="edgeLabel;html=1;align=center;verticalAlign=middle;resizable=0;points=[];fontColor=#FF0000;" vertex="1" connectable="0" parent="IiUNVA97wayGrPqKpcaN-146">
          <mxGeometry x="-0.2539" y="1" relative="1" as="geometry">
            <mxPoint y="8" as="offset" />
          </mxGeometry>
        </mxCell>
        <mxCell id="IiUNVA97wayGrPqKpcaN-148" value="" style="endArrow=classic;html=1;rounded=0;strokeWidth=2;strokeColor=#00CC00;" edge="1" parent="1">
          <mxGeometry width="50" height="50" relative="1" as="geometry">
            <mxPoint x="652" y="273" as="sourcePoint" />
            <mxPoint x="652" y="353" as="targetPoint" />
          </mxGeometry>
        </mxCell>
        <mxCell id="IiUNVA97wayGrPqKpcaN-149" value="supervised L1" style="edgeLabel;html=1;align=center;verticalAlign=middle;resizable=0;points=[];fontColor=#00CC00;" vertex="1" connectable="0" parent="IiUNVA97wayGrPqKpcaN-148">
          <mxGeometry x="-0.249" y="1" relative="1" as="geometry">
            <mxPoint y="7" as="offset" />
          </mxGeometry>
        </mxCell>
        <mxCell id="IiUNVA97wayGrPqKpcaN-150" value="" style="line;strokeWidth=2;html=1;" vertex="1" parent="1">
          <mxGeometry x="607" y="348" width="352" height="10" as="geometry" />
        </mxCell>
        <mxCell id="IiUNVA97wayGrPqKpcaN-151" value="&lt;font color=&quot;#3333ff&quot; style=&quot;font-size: 14px;&quot;&gt;[WN&lt;i&gt;&lt;sub&gt;i&lt;/sub&gt;&lt;/i&gt;X2]&lt;/font&gt;" style="text;html=1;strokeColor=none;fillColor=none;align=left;verticalAlign=middle;whiteSpace=wrap;rounded=0;" vertex="1" parent="1">
          <mxGeometry x="774" y="60" width="57" height="30" as="geometry" />
        </mxCell>
        <mxCell id="IiUNVA97wayGrPqKpcaN-152" value="" style="endArrow=classic;html=1;rounded=0;entryX=0.093;entryY=-0.015;entryDx=0;entryDy=0;entryPerimeter=0;strokeColor=#3333FF;strokeWidth=2;" edge="1" parent="1">
          <mxGeometry width="50" height="50" relative="1" as="geometry">
            <mxPoint x="799" y="82" as="sourcePoint" />
            <mxPoint x="799" y="101" as="targetPoint" />
          </mxGeometry>
        </mxCell>
        <mxCell id="IiUNVA97wayGrPqKpcaN-153" value="" style="endArrow=classic;html=1;rounded=0;strokeColor=#3333FF;strokeWidth=2;entryX=0.5;entryY=0;entryDx=0;entryDy=0;exitX=0.5;exitY=1;exitDx=0;exitDy=0;" edge="1" parent="1">
          <mxGeometry width="50" height="50" relative="1" as="geometry">
            <mxPoint x="799" y="163" as="sourcePoint" />
            <mxPoint x="800" y="236" as="targetPoint" />
          </mxGeometry>
        </mxCell>
        <mxCell id="IiUNVA97wayGrPqKpcaN-154" value="\(\sigma\)[WN&lt;i&gt;&lt;sub&gt;i&lt;/sub&gt;&lt;/i&gt;P2]&amp;lt; \(\tau\)" style="edgeLabel;html=1;align=center;verticalAlign=middle;resizable=0;points=[];fontColor=#3333FF;" vertex="1" connectable="0" parent="IiUNVA97wayGrPqKpcaN-153">
          <mxGeometry x="-0.2117" relative="1" as="geometry">
            <mxPoint x="4" y="15" as="offset" />
          </mxGeometry>
        </mxCell>
        <mxCell id="IiUNVA97wayGrPqKpcaN-155" value="&lt;font style=&quot;font-size: 14px;&quot;&gt;PL2=\(\mu\)(WN&lt;sub&gt;&lt;i&gt;i&lt;/i&gt;&lt;/sub&gt;P2)&lt;/font&gt;" style="text;html=1;strokeColor=none;fillColor=none;align=center;verticalAlign=middle;whiteSpace=wrap;rounded=0;fontColor=#00CC00;" vertex="1" parent="1">
          <mxGeometry x="768" y="234" width="100" height="24" as="geometry" />
        </mxCell>
        <mxCell id="IiUNVA97wayGrPqKpcaN-156" value="" style="group" vertex="1" connectable="0" parent="1">
          <mxGeometry x="810" y="253" width="247" height="125" as="geometry" />
        </mxCell>
        <mxCell id="IiUNVA97wayGrPqKpcaN-157" value="" style="shape=partialRectangle;whiteSpace=wrap;html=1;bottom=1;right=1;left=1;top=0;fillColor=none;routingCenterX=-0.5;strokeColor=#00CC00;strokeWidth=2;" vertex="1" parent="IiUNVA97wayGrPqKpcaN-156">
          <mxGeometry x="18.25" width="181.75" height="30" as="geometry" />
        </mxCell>
        <mxCell id="IiUNVA97wayGrPqKpcaN-158" value="" style="endArrow=classic;html=1;rounded=0;strokeWidth=2;strokeColor=#00CC00;" edge="1" parent="1">
          <mxGeometry width="50" height="50" relative="1" as="geometry">
            <mxPoint x="958" y="282" as="sourcePoint" />
            <mxPoint x="958" y="353" as="targetPoint" />
          </mxGeometry>
        </mxCell>
        <mxCell id="IiUNVA97wayGrPqKpcaN-159" value="supervised L2" style="edgeLabel;html=1;align=center;verticalAlign=middle;resizable=0;points=[];fontColor=#00CC00;" vertex="1" connectable="0" parent="IiUNVA97wayGrPqKpcaN-158">
          <mxGeometry x="-0.249" y="1" relative="1" as="geometry">
            <mxPoint x="-6" y="3" as="offset" />
          </mxGeometry>
        </mxCell>
        <mxCell id="IiUNVA97wayGrPqKpcaN-160" value="" style="endArrow=classic;html=1;rounded=0;entryX=0.093;entryY=-0.015;entryDx=0;entryDy=0;entryPerimeter=0;strokeColor=#3333FF;strokeWidth=2;" edge="1" parent="1">
          <mxGeometry width="50" height="50" relative="1" as="geometry">
            <mxPoint x="819" y="460" as="sourcePoint" />
            <mxPoint x="819" y="479" as="targetPoint" />
          </mxGeometry>
        </mxCell>
        <mxCell id="IiUNVA97wayGrPqKpcaN-161" value="\(argMax\)(WNP2&amp;gt; \(\tau\))" style="edgeLabel;html=1;align=center;verticalAlign=middle;resizable=0;points=[];fontColor=#3333FF;" vertex="1" connectable="0" parent="1">
          <mxGeometry x="279.4017887874579" y="586.3305814844289" as="geometry" />
        </mxCell>
        <mxCell id="IiUNVA97wayGrPqKpcaN-162" value="" style="rounded=0;whiteSpace=wrap;html=1;fillColor=none;dashed=1;strokeWidth=2;strokeColor=#999999;" vertex="1" parent="1">
          <mxGeometry x="769" y="60" width="101" height="194" as="geometry" />
        </mxCell>
      </root>
    </mxGraphModel>
  </diagram>
</mxfile>
